<svg width="27" height="23" viewBox="0 0 27 23" version="1.1" xmlns="http://www.w3.org/2000/svg" xmlns:xlink="http://www.w3.org/1999/xlink">
<title>CartIcon</title>
<desc>Created using Figma</desc>
<g id="Canvas" transform="translate(1052 531)">
<g id="CartIcon">
<g id="Fill 2" opacity="0.54">
<use xlink:href="#path13_fill" transform="translate(-1051.45 -530.052)" fill="#F2F2F2"/>
</g>
</g>
</g>
<defs>
<path id="path13_fill" fill-rule="evenodd" d="M 7.65378 17.6389C 6.24573 17.6389 5.11572 18.6256 5.11572 19.8438C 5.11572 21.0609 6.24573 22.0487 7.65378 22.0487C 9.06311 22.0487 10.2046 21.0609 10.2046 19.8438C 10.2046 18.6256 9.06311 17.6389 7.65378 17.6389L 7.65378 17.6389ZM 20.4078 17.6389C 18.9998 17.6389 17.8698 18.6256 17.8698 19.8438C 17.8698 21.0609 18.9998 22.0487 20.4078 22.0487C 21.8171 22.0487 22.9586 21.0609 22.9586 19.8438C 22.9586 18.6256 21.8171 17.6389 20.4078 17.6389L 20.4078 17.6389ZM 2.55209 0L 0 0L 0 2.20381L 2.55209 2.20381L 7.141 10.5692L 5.41538 13.2714C 5.21641 13.5878 5.1029 13.9494 5.1029 14.3319C 5.1029 15.549 6.24567 16.5368 7.65372 16.5368L 22.9586 16.5368L 22.9586 14.3319L 8.19321 14.3319C 8.01721 14.3319 7.87564 14.2095 7.87564 14.0563L 7.9139 13.9229L 9.05921 12.127L 18.5597 12.127C 19.5188 12.127 20.3555 11.6695 20.7917 10.9926L 25.35 3.83875C 25.452 3.6822 25.5107 3.50029 25.5107 3.30736C 25.5107 2.69771 24.9393 2.20381 24.234 2.20381L 5.37456 2.20381L 4.85675 1.26231C 4.44989 0.515949 3.56986 0 2.55209 0L 2.55209 0Z"/>
</defs>
</svg>
