<?xml version="1.0" encoding="UTF-8"?>
<svg width="352px" height="212px" viewBox="0 0 352 212" version="1.1" xmlns="http://www.w3.org/2000/svg" xmlns:xlink="http://www.w3.org/1999/xlink">
    <!-- Generator: Sketch 48.2 (47327) - http://www.bohemiancoding.com/sketch -->
    <title>Grumpy Cat</title>
    <desc>Created with Sketch.</desc>
    <defs></defs>
    <g id="Page-1" stroke="none" stroke-width="1" fill="none" fill-rule="evenodd">
        <g id="Grumpy-Cat" transform="translate(1.000000, 1.000000)" fill="#050000" fill-rule="nonzero" stroke="#DD0000">
            <path d="M318.806036,3.12916667 C303.581892,8.3425 295.631811,12.9675 272.882382,29.84125 C260.796819,38.8125 249.170881,47.9233333 247.055465,50.0870833 C242.868026,54.36375 242.633931,54.4395833 229.013622,55.80625 C212.003507,57.5083333 212.419739,57.4133333 213.07863,59.2483333 C213.494861,60.4058333 214.665334,60.9120833 216.936623,60.9120833 C218.731158,60.9120833 227.904241,61.88 237.319413,63.0633333 C248.841436,64.5120833 258.057341,65.16375 265.487276,65.06875 L276.541109,64.9170833 L284.855465,69.3458333 L293.169821,73.7745833 L293.169821,78.5575 C293.169821,83.1129167 293.41248,83.5116667 298.397553,87.08 C302.723736,90.18 303.538499,91.2429167 303.105139,93.2483333 C302.645514,95.3554167 303.642414,96.4183333 310.682382,101.353333 L318.788336,107.040833 L318.051794,104.18125 C317.557341,102.264167 318.077488,99.8475 319.620799,96.8358333 C322.17814,91.8375 323.331485,84.0241667 321.467292,84.2579167 C320.817537,84.3341667 318.866558,84.6629167 317.132545,84.9795833 C314.679119,85.42875 313.976835,85.2579167 313.976835,84.2075 C313.976835,83.0179167 309.182463,80.0254167 302.896737,77.29875 C300.972023,76.4633333 301.102202,76.1154167 304.700408,72.4520833 C306.832953,70.2820833 308.3677,68.3966667 308.098777,68.2575 C307.838989,68.1245833 305.792659,67.0366667 303.573328,65.8470833 C291.713295,59.50125 281.699755,57.24875 270.801794,58.4825 C261.706933,59.51375 257.328793,58.6725 257.328793,55.88875 C257.328793,54.965 260.718597,51.4408333 264.863214,48.06875 C268.998124,44.69 277.564274,37.1358333 283.884258,31.2708333 C295.449674,20.5470833 304.188825,14.3341667 311.662153,11.51875 C314.21093,10.5633333 319.213132,9.86083333 325.160848,9.62041667 C334.10783,9.26625 334.766721,9.36125 337.584421,11.4175 C340.367292,13.4483333 340.567129,14.11875 340.567129,21.6225 C340.567129,28.5695833 340.089804,30.5179167 337.099103,36.0225 C335.191517,39.5275 333.631077,43.63375 333.631077,45.1458333 C333.631077,46.6579167 332.555954,52.1745833 331.246737,57.4070833 C329.938091,62.6458333 329.027406,67.5554167 329.235808,68.3270833 C329.851305,70.6808333 335.547227,60.31125 339.803752,49.1 C341.99739,43.2983333 345.179364,35.1366667 346.860848,30.9608333 C349.037357,25.5704167 349.947471,21.3883333 349.973736,16.5545833 C350.025693,7.47583333 348.031321,4.02125 341.477243,1.85125 C334.255139,-0.540416667 328.594046,-0.2175 318.806036,3.12916667 Z M4.09437194,27.1016667 L0.419657423,29.7779167 L1.23784666,37.4141667 C2.28099511,47.13875 4.12634584,51.5991667 9.92846656,58.3979167 C17.0609299,66.7575 21.7097064,73.5695833 23.3358075,78.0445833 C24.1477162,80.2758333 27.8407015,85.7583333 31.5445351,90.2275 L38.2784666,98.35375 L38.3344209,109.79125 C38.3823817,119.335833 38.6695759,121.181667 40.0684339,120.9475 C43.0397227,120.460417 58.1034258,115.727917 60.1149266,114.652083 C61.8506525,113.728333 61.9163132,112.97375 60.7224307,107.719167 C59.6336052,102.930417 59.6918434,100.962917 61.0284666,97.22125 C62.6185971,92.7733333 62.8863785,92.5533333 68.8243883,90.81125 C72.6309951,89.6945833 76.4313214,87.75375 78.7968189,85.7133333 C82.4384176,82.5816667 82.7159054,82.4929167 84.6714519,83.89125 C86.6264274,85.2895833 86.8839315,85.25125 90.0322186,83.0491667 C93.0988581,80.9041667 94.0660685,80.7320833 103.377325,80.6741667 C113.265253,80.6125 113.441109,80.5754167 115.042659,78.1754167 C116.364437,76.1920833 116.41925,74.8604167 115.330995,71.0166667 C113.364029,64.0691667 113.61354,63.6833333 117.804976,67.22 L121.615008,70.4404167 L131.315661,63.6579167 L141.016884,56.8754167 L129.52969,56.3370833 C114.294127,55.6220833 110.603426,54.7995833 98.8353181,49.5 C71.9749592,37.4008333 33.0695759,25.9025 15.5124796,24.8725 C8.00032626,24.4320833 7.66402936,24.4979167 4.09779772,27.1004167 L4.09437194,27.1016667 Z M34.2320555,35.7883333 C40.996248,37.28125 76.1235726,50.0679167 80.9219413,52.7883333 C86.891925,56.1670833 102.861746,70.2316667 101.653018,71.0408333 C101.129445,71.39125 95.4392333,72.8566667 89.0090538,74.2979167 C82.5777325,75.7383333 73.6056281,78.0191667 69.0687602,79.3666667 C64.5313214,80.71375 60.8194943,81.6408333 60.8194943,81.42375 C60.8194943,81.20875 62.2269168,79.2854167 63.9443719,77.1466667 C66.4017945,74.0845833 66.6490212,73.3758333 65.1,73.8316667 C64.0168842,74.1483333 62.2908646,74.6554167 61.2637031,74.9570833 C59.7306688,75.40875 59.5548124,75.1441667 60.2856444,73.4808333 C61.8712072,69.8704167 63.0747961,65.5983333 63.1022023,63.4770833 C63.1284666,61.5195833 62.8230016,61.6208333 57.7842577,65.16375 L52.4383361,68.9220833 L53.0652529,65.25875 C53.7309951,61.3675 53.5551387,61.2979167 47.6348287,63.0645833 C45.6199021,63.6666667 45.4977162,63.4308333 46.1874388,60.2783333 C46.9074225,56.9933333 46.7053018,56.6820833 41.7973083,53.5291667 L36.6517945,50.2241667 L38.1882545,46.4991667 L39.7241436,42.7729167 L31.3218597,42.7729167 C24.6815661,42.7729167 22.4085644,42.4379167 20.482137,41.16625 C18.1377651,39.6225 17.17969,35.6745833 18.8526101,34.4520833 C19.7992659,33.76125 28.4390701,34.5120833 34.2286297,35.7883333 L34.2320555,35.7883333 Z M155.000326,101.82125 C147.067374,107.87625 145.030179,108.994583 141.934992,108.995833 C138.406444,108.995833 138.2677,109.12875 138.2677,112.472083 C138.2677,115.890833 138.224307,115.928333 135.666966,114.68375 C133.274062,113.517083 132.727651,113.5925 128.757178,115.635417 C125.566639,117.275417 124.43956,118.461667 124.422431,120.188333 L124.396166,122.529167 L119.48075,120.71125 C112.258646,118.039583 98.8553018,111.672083 95.2228385,109.179583 C93.480261,107.987083 91.7285481,107.245417 91.3385808,107.53375 C90.9400489,107.8225 90.619168,110.935833 90.619168,114.452917 L90.619168,120.846667 L86.891354,120.336667 C83.3017129,119.845833 83.0938825,119.975417 81.0995106,123.902083 C78.6026917,128.830417 76.9902936,129.85625 70.6788744,130.547083 C62.7202284,131.418333 62.4079119,131.804167 65.3643556,137.11875 C66.7946166,139.682917 67.6527732,142.495833 67.2713703,143.367083 C66.7860522,144.480833 68.4766721,146.689167 72.9501631,150.782917 C76.4530179,153.989167 79.31354,156.861667 79.31354,157.166667 C79.31354,157.472083 80.8745514,158.193333 82.7815661,158.767083 C86.7349103,159.961667 86.9084829,160.338333 84.5504078,162.615833 C83.6225938,163.514167 82.8420881,164.522083 82.8163948,164.85375 C82.7467374,166.077083 87.9053834,167.390833 97.0693312,168.48 C109.01615,169.90125 111.868679,170.72 115.258483,173.707917 L118.006525,176.1275 L124.777569,174.130833 C128.505954,173.03 133.386542,171.91625 135.623573,171.65125 L139.680832,171.169583 L138.891762,174.035833 C138.449837,175.61375 137.799511,177.660833 137.435808,178.584583 C136.837439,180.120417 136.967618,180.158333 138.969984,179.029583 C153.274878,170.954167 160.592333,164.91125 162.569005,159.537917 C163.470555,157.115833 163.435726,154.82125 162.46509,151.20875 C161.138744,146.310833 161.182137,146.164167 164.71925,142.332083 C168.958646,137.75125 169.071126,137.189167 166.010767,135.795 C164.744943,135.215833 163.704649,134.49125 163.704649,134.185833 C163.704649,133.88 165.50832,131.675833 167.701387,129.287917 C169.903589,126.899583 172.591109,122.89875 173.674796,120.397083 L175.642904,115.847917 L172.435237,110.632083 C170.666395,107.764167 168.654894,102.998333 167.961746,100.037083 C167.268026,97.0775 166.184339,94.6554167 165.542577,94.6554167 C164.909951,94.6554167 160.167537,97.8825 155.000326,101.825833 L155.000326,101.824583 L155.000326,101.82125 Z M111.417618,134.290833 C113.082545,134.3025 114.504241,136.45125 116.34217,141.769167 C117.044454,143.787083 117.972268,145.185 118.405628,144.875 C118.838989,144.564167 120.234992,141.9025 121.50938,138.960417 L123.815498,133.610417 L129.667292,135.220833 C132.884095,136.10625 136.611909,137.571667 137.938254,138.477083 C140.045106,139.90875 140.218679,140.573333 139.290865,143.596667 C136.949918,151.209167 131.392741,153.834167 117.711909,153.8025 C108.643312,153.782917 105.184421,153.005833 101.673002,150.208333 C99.080832,148.1375 90.878956,138.515833 90.878956,137.535833 C90.8703915,136.270417 104.083034,133.441667 107.637847,133.948333 C108.90367,134.13 110.611419,134.284167 111.417618,134.290833 L111.417618,134.29 L111.417618,134.290833 Z M218.029445,97.6266667 C218.029445,97.8670833 220.04894,100.99875 222.520065,104.58625 C229.620555,114.88625 230.019657,116.695833 226.742333,123.579167 C225.207586,126.787083 223.716232,129.59 223.421615,129.805 C223.126998,130.02 220.300734,129.241667 217.13646,128.07125 C211.994943,126.173333 211.258401,125.534167 210.026835,121.985 C207.695024,115.227917 202.285155,108.995833 198.756607,108.995833 C196.511011,108.995833 196.666884,117.733333 198.938744,119.10625 C202.267455,121.124583 205.380343,125.755833 207.495188,131.848333 C209.324551,137.099583 209.419902,138.377917 208.128385,140.62375 C206.750082,143.040833 206.949347,143.768333 210.590375,149.538333 C212.766884,152.98625 214.8823,157.257083 215.289396,159.022083 C215.809543,161.274583 216.503263,162.090833 217.604078,161.761667 C218.47137,161.50875 219.832545,161.10375 220.630179,160.869583 C221.479772,160.616667 223.378222,162.14125 225.259543,164.59 C230.426754,171.30875 238.446493,178.5975 243.136378,180.837083 C251.242904,184.709167 251.615742,184.234583 245.685726,177.48375 C242.55571,173.915417 239.989804,170.619167 239.998369,170.15125 C239.998369,169.689167 243.327651,169.2525 247.402039,169.182917 C259.305465,168.974167 273.974633,165.178333 283.62447,159.812917 L287.369413,157.731667 L284.491191,155.2325 C280.910685,152.1325 280.910685,151.480833 284.499755,145.2675 C286.08646,142.509167 287.387113,140.079583 287.387113,139.864583 C287.387113,139.649583 285.305954,138.618333 282.765742,137.574167 C280.216966,136.530417 278.136378,135.46125 278.136378,135.201667 C278.136378,134.935833 279.202936,132.68375 280.503018,130.190833 C281.795106,127.697917 282.592741,125.458333 282.263295,125.224167 C281.942414,124.98375 278.925449,125.230833 275.569902,125.762083 C260.562724,128.16625 255.586215,128.59 252.604078,127.723333 C250.419005,127.090833 248.130587,124.67375 244.072757,118.70125 C241.020962,114.215833 236.495514,108.667083 234.007259,106.376667 C228.354731,101.150833 218.029445,95.5008333 218.029445,97.6204167 L218.029445,97.6266667 Z M267.732871,136.28375 C267.732871,142.812917 264.264845,148.298333 258.646574,150.651667 C256.17602,151.689583 251.754486,152.417083 246.509054,152.65125 C239.252692,152.98 237.779038,152.784167 234.241354,151.025 C230.816721,149.323333 223.898369,141.402083 223.829282,139.117917 C223.812153,138.479167 238.099347,133.455417 239.920147,133.455417 C240.388336,133.455417 242.261093,136.137917 244.064192,139.409167 C246.699755,144.192083 247.558483,145.077917 248.442333,143.92625 C249.049266,143.135417 249.239967,140.136667 248.876264,137.257917 L248.199674,132.019167 L257.103834,131.24125 C261.993556,130.804583 266.388825,130.583333 266.865579,130.74125 C267.342333,130.899583 267.732871,133.392083 267.732871,136.28375 Z M214.700163,170.340833 C213.893964,171.757917 209.004241,175.32625 203.385971,178.584583 C193.719576,184.190417 193.415824,184.291667 190.442251,183.051667 C188.76876,182.349167 183.636378,180.748333 179.041272,179.483333 C173.657667,178.009167 169.634666,176.275417 167.719086,174.617917 C164.875122,172.150417 164.684421,172.1125 163.106281,173.630833 C162.204731,174.50375 161.441925,175.649167 161.424796,176.180417 C161.407096,176.718333 166.201468,178.515 172.079527,180.185417 C177.96615,181.855833 184.442577,183.9625 186.471207,184.87375 C190.467945,186.657917 194.560033,191.453333 192.982463,192.50375 C192.453752,192.857917 186.818352,194.775 180.46354,196.774583 C171.984176,199.431667 167.441599,201.45 163.410033,204.3475 C157.531974,208.57375 155.849918,211.395833 160.523246,209.19375 C181.599184,199.254583 192.860848,195.8825 205.033197,195.8825 C214.292496,195.8825 218.332626,197.154167 227.756362,203.025417 C231.311175,205.245833 234.215661,206.8025 234.215661,206.4925 C234.215661,204.9425 230.418189,200.912083 226.742333,198.55875 C220.985318,194.87 217.283768,193.63625 209.940049,192.984583 C198.539641,191.9725 197.22186,191.649583 197.22186,189.871667 C197.22186,186 204.278956,179.913333 212.246737,176.908333 C216.928059,175.136667 219.615579,171.327917 217.604078,169.315833 C216.243475,167.962083 216.000245,168.044167 214.700163,170.340833 Z" id="Shape"></path>
        </g>
    </g>
</svg>