<svg width="50" height="50" viewBox="0 0 56 55" version="1.1" xmlns="http://www.w3.org/2000/svg" xmlns:xlink="http://www.w3.org/1999/xlink">
<g id="Canvas" fill="none">
<g id="importPhotoIcon">
<g id="Ellipse">
<path d="M 56 27.5C 56 42.6878 43.464 55 28 55C 12.536 55 0 42.6878 0 27.5C 0 12.3122 12.536 0 28 0C 43.464 0 56 12.3122 56 27.5Z" fill="#57BF01"/>
</g>
<g id="Arrow">
<path d="M 44.0294 1.06066C 44.6152 0.474874 44.6152 -0.474874 44.0294 -1.06066L 34.4835 -10.6066C 33.8977 -11.1924 32.9479 -11.1924 32.3621 -10.6066C 31.7764 -10.0208 31.7764 -9.07107 32.3621 -8.48528L 40.8474 0L 32.3621 8.48528C 31.7764 9.07107 31.7764 10.0208 32.3621 10.6066C 32.9479 11.1924 33.8977 11.1924 34.4835 10.6066L 44.0294 1.06066ZM 0 1.5L 42.9688 1.5L 42.9688 -1.5L 0 -1.5L 0 1.5Z" transform="matrix(0 1 -1 0 27.5692 0)" fill="white"/>
</g>
</g>
</g>
</svg>

