<svg width="50" height="50" viewBox="0 0 50 50" version="1.1" xmlns="http://www.w3.org/2000/svg" xmlns:xlink="http://www.w3.org/1999/xlink">
<g id="Canvas" fill="none">
<g id="importPhotoIcon">
<g id="Ellipse">
<path d="M 50 25C 50 38.8071 38.8071 50 25 50C 11.1929 50 0 38.8071 0 25C 0 11.1929 11.1929 0 25 0C 38.8071 0 50 11.1929 50 25Z" fill="#00A776"/>
</g>
<g id="Arrow">
<path d="M 38.6507 1.06066C 39.2364 0.474874 39.2364 -0.474874 38.6507 -1.06066L 29.1047 -10.6066C 28.5189 -11.1924 27.5692 -11.1924 26.9834 -10.6066C 26.3976 -10.0208 26.3976 -9.07107 26.9834 -8.48528L 35.4687 0L 26.9834 8.48528C 26.3976 9.07107 26.3976 10.0208 26.9834 10.6066C 27.5692 11.1924 28.5189 11.1924 29.1047 10.6066L 38.6507 1.06066ZM 0 1.5L 37.59 1.5L 37.59 -1.5L 0 -1.5L 0 1.5Z" transform="matrix(0 1 -1 0 25 6)" fill="white"/>
</g>
</g>
</g>
</svg>

