<svg width="55" height="55" viewBox="0 0 65 64" version="1.1" xmlns="http://www.w3.org/2000/svg" xmlns:xlink="http://www.w3.org/1999/xlink">
<g id="Canvas" fill="none">
<g id="loginButton">
<g id="Ellipse">
<path d="M 65 32C 65 49.6731 50.4493 64 32.5 64C 14.5507 64 0 49.6731 0 32C 0 14.3269 14.5507 0 32.5 0C 50.4493 0 65 14.3269 65 32Z" fill="#00A776"/>
</g>
<g id="Arrow">
<path d="M 54.0607 1.06066C 54.6464 0.474874 54.6464 -0.474874 54.0607 -1.06066L 44.5147 -10.6066C 43.9289 -11.1924 42.9792 -11.1924 42.3934 -10.6066C 41.8076 -10.0208 41.8076 -9.07107 42.3934 -8.48528L 50.8787 0L 42.3934 8.48528C 41.8076 9.07107 41.8076 10.0208 42.3934 10.6066C 42.9792 11.1924 43.9289 11.1924 44.5147 10.6066L 54.0607 1.06066ZM 0 1.5L 53 1.5L 53 -1.5L 0 -1.5L 0 1.5Z" transform="translate(0 32)" fill="white"/>
</g>
</g>
</g>
</svg>

