<svg width="75" height="56" viewBox="0 0 75 56" version="1.1" xmlns="http://www.w3.org/2000/svg" xmlns:xlink="http://www.w3.org/1999/xlink">
<title>Logo</title>
<desc>Created using Figma</desc>
<g id="Canvas" transform="translate(2115 451)">
<g id="Logo">
<g id="MKT">
<use xlink:href="#path2_fill" transform="translate(-2095 -432)" fill="#0DC14F"/>
</g>
<g id="NEO">
<use xlink:href="#path3_fill" transform="translate(-2115 -451)" fill="#0DC14F"/>
</g>
</g>
</g>
<defs>
<path id="path2_fill" d="M 20.2437 8.10938C 20.5444 8.10938 20.6948 8.24204 20.6948 8.50735L 19.2621 26.6551C 19.2444 26.7966 19.1825 26.9116 19.0763 27C 18.9702 27.0884 18.8552 27.1327 18.7314 27.1327C 18.5722 27.1327 18.4307 27.0796 18.3069 26.9735C 18.2008 26.8497 18.1477 26.6993 18.1477 26.5224L 19.4213 10.7891L 11.5413 23.7897C 11.5059 23.8781 11.4264 23.9577 11.3025 24.0284C 11.1787 24.0815 11.0549 24.108 10.9311 24.108C 10.7896 24.108 10.6569 24.0727 10.5331 24.0019C 10.4093 23.9312 10.3297 23.8339 10.2943 23.7101L 4.43081 10.683L 3.18381 26.6551C 3.16613 26.7966 3.10422 26.9116 2.99809 27C 2.89196 27.0884 2.77699 27.1327 2.65318 27.1327C 2.49399 27.1327 2.35248 27.0796 2.22867 26.9735C 2.10485 26.8497 2.05179 26.6993 2.06948 26.5224L 3.47566 8.71961C 3.49335 8.56042 3.54641 8.42776 3.63485 8.32163C 3.74098 8.2155 3.88248 8.16244 4.05936 8.16244C 4.32468 8.16244 4.5104 8.31279 4.61653 8.61348L 10.9842 23.0468L 19.6335 8.45429C 19.7396 8.22435 19.9431 8.10938 20.2437 8.10938ZM 37.3261 8.26857C 37.4145 8.2155 37.5029 8.18897 37.5914 8.18897C 37.7152 8.18897 37.8302 8.24204 37.9363 8.34816C 38.0424 8.45429 38.0955 8.56926 38.0955 8.69308C 38.0955 8.81689 38.0336 8.93186 37.9098 9.03799L 27.1909 17.4486L 36.9811 26.2306C 37.105 26.3544 37.1669 26.4871 37.1669 26.6286C 37.1669 26.7524 37.1138 26.8673 37.0077 26.9735C 36.9192 27.0796 36.8131 27.1327 36.6893 27.1327C 36.5655 27.1327 36.4682 27.0973 36.3974 27.0265L 26.1562 17.9261L 25.4664 26.6286C 25.4487 26.7524 25.3868 26.8673 25.2806 26.9735C 25.1745 27.0796 25.0595 27.1327 24.9357 27.1327C 24.7942 27.1327 24.6616 27.0708 24.5377 26.9469C 24.4139 26.8054 24.352 26.6639 24.352 26.5224L 25.7582 8.66654C 25.7759 8.54273 25.8378 8.42776 25.9439 8.32163C 26.0501 8.2155 26.165 8.16244 26.2888 8.16244C 26.4303 8.16244 26.563 8.23319 26.6868 8.37469C 26.8106 8.49851 26.8725 8.63117 26.8725 8.77267L 26.2358 16.971L 37.3261 8.26857ZM 45.4616 27.1327C 45.3024 27.1327 45.1609 27.0708 45.0371 26.9469C 44.9309 26.8231 44.8867 26.6816 44.9044 26.5224L 46.2575 9.30331L 39.8103 9.30331C 39.6688 9.30331 39.5538 9.25024 39.4654 9.14412C 39.377 9.03799 39.3327 8.91417 39.3327 8.77267C 39.3327 8.64886 39.3681 8.54273 39.4389 8.45429C 39.5273 8.34816 39.6423 8.2951 39.7838 8.2951L 53.8721 8.2951C 54.0313 8.2951 54.1552 8.34816 54.2436 8.45429C 54.332 8.56042 54.3763 8.68423 54.3763 8.82573C 54.3763 8.93186 54.332 9.03799 54.2436 9.14412C 54.1552 9.25024 54.049 9.30331 53.9252 9.30331L 47.3453 9.30331L 45.9922 26.6286C 45.9745 26.7701 45.9126 26.8939 45.8065 27C 45.718 27.0884 45.6031 27.1327 45.4616 27.1327Z"/>
<path id="path3_fill" d="M 18.0814 6.89712L 18.0814 26L 16.5028 26C 16.264 26 16.0606 25.9602 15.8925 25.8806C 15.7245 25.7922 15.5653 25.6507 15.415 25.4561L 4.92164 11.978C 4.94818 12.2344 4.96586 12.4909 4.97471 12.7474C 4.9924 12.995 5.00124 13.225 5.00124 13.4372L 5.00124 26L 2.26847 26L 2.26847 6.89712L 3.8869 6.89712C 4.01956 6.89712 4.13011 6.90597 4.21855 6.92365C 4.31584 6.9325 4.40427 6.95461 4.48387 6.98998C 4.56347 7.02536 4.63864 7.07842 4.70939 7.14917C 4.78014 7.21993 4.85531 7.30836 4.93491 7.41449L 15.4415 20.9059C 15.415 20.6317 15.3929 20.362 15.3752 20.0967C 15.3663 19.8314 15.3619 19.5837 15.3619 19.3538L 15.3619 6.89712L 18.0814 6.89712ZM 34.5597 23.4927L 34.5464 26L 22.6337 26L 22.6337 6.89712L 34.5464 6.89712L 34.5464 9.40438L 25.7512 9.40438L 25.7512 15.1618L 32.7821 15.1618L 32.7821 17.5894L 25.7512 17.5894L 25.7512 23.4927L 34.5597 23.4927ZM 55.4547 16.4486C 55.4547 17.8636 55.2248 19.1681 54.7649 20.362C 54.305 21.5559 53.655 22.5862 52.8148 23.4529C 51.9835 24.3108 50.9797 24.9829 49.8035 25.4694C 48.6361 25.9558 47.336 26.199 45.9033 26.199C 44.4794 26.199 43.1794 25.9558 42.0031 25.4694C 40.8357 24.9829 39.8319 24.3108 38.9918 23.4529C 38.1516 22.5862 37.5016 21.5559 37.0417 20.362C 36.5818 19.1681 36.3518 17.8636 36.3518 16.4486C 36.3518 15.0335 36.5818 13.7291 37.0417 12.5351C 37.5016 11.3412 38.1516 10.3109 38.9918 9.44417C 39.8319 8.57747 40.8357 7.90091 42.0031 7.41449C 43.1794 6.92808 44.4794 6.68487 45.9033 6.68487C 47.336 6.68487 48.6361 6.92808 49.8035 7.41449C 50.9797 7.90091 51.9835 8.57747 52.8148 9.44417C 53.655 10.3109 54.305 11.3412 54.7649 12.5351C 55.2248 13.7291 55.4547 15.0335 55.4547 16.4486ZM 52.2842 16.4486C 52.2842 15.3519 52.1338 14.3658 51.8331 13.4903C 51.5413 12.6147 51.1168 11.8718 50.5596 11.2616C 50.0113 10.6514 49.3436 10.1826 48.5565 9.85542C 47.7694 9.52819 46.885 9.36458 45.9033 9.36458C 44.9305 9.36458 44.0505 9.52819 43.2634 9.85542C 42.4763 10.1826 41.8041 10.6514 41.247 11.2616C 40.6898 11.8718 40.2609 12.6147 39.9602 13.4903C 39.6595 14.3658 39.5091 15.3519 39.5091 16.4486C 39.5091 17.5541 39.6595 18.5446 39.9602 19.4201C 40.2609 20.2957 40.6898 21.0386 41.247 21.6488C 41.8041 22.2502 42.4763 22.7145 43.2634 23.0417C 44.0505 23.3601 44.9305 23.5193 45.9033 23.5193C 46.885 23.5193 47.7694 23.3601 48.5565 23.0417C 49.3436 22.7145 50.0113 22.2502 50.5596 21.6488C 51.1168 21.0386 51.5413 20.2957 51.8331 19.4201C 52.1338 18.5446 52.2842 17.5541 52.2842 16.4486Z"/>
</defs>
</svg>
