<svg width="29" height="16" viewBox="0 0 29 16" version="1.1" xmlns="http://www.w3.org/2000/svg" xmlns:xlink="http://www.w3.org/1999/xlink">
<title>PeopleIcon</title>
<desc>Created using Figma</desc>
<g id="Canvas" transform="translate(-272 -1914)">
<g id="PeopleIcon" opacity="0.54">
<use xlink:href="#path5_fill" transform="translate(272 1914.08)"/>
</g>
</g>
<defs>
<path id="path5_fill" fill-rule="evenodd" d="M 8.92912 8.96753C 5.9536 8.96753 0 10.2754 0 12.8899L 0 15.6905L 17.857 15.6905L 17.857 12.8899C 17.857 10.2754 11.9059 8.96753 8.92912 8.96753L 8.92912 8.96753ZM 19.1336 8.96655C 18.7625 8.96655 18.3467 8.98672 17.9016 9.02707C 19.3785 9.9662 20.4078 11.227 20.4078 12.8889L 20.4078 15.6895L 28.0589 15.6895L 28.0589 12.8889C 28.0589 10.2744 22.1092 8.96655 19.1336 8.96655L 19.1336 8.96655ZM 8.92914 0C 6.81707 0 5.10292 1.50731 5.10292 3.36315C 5.10292 5.21899 6.81707 6.72518 8.92914 6.72518C 11.0425 6.72518 12.7439 5.21899 12.7439 3.36315C 12.7439 1.50731 11.0425 0 8.92914 0L 8.92914 0ZM 19.1337 0C 17.019 0 15.3062 1.50731 15.3062 3.36315C 15.3062 5.21899 17.019 6.72518 19.1337 6.72518C 21.2457 6.72518 22.9459 5.21899 22.9459 3.36315C 22.9459 1.50731 21.2457 0 19.1337 0L 19.1337 0Z"/>
</defs>
</svg>
