<?xml version="1.0" encoding="UTF-8"?>
<svg width="29px" height="16px" viewBox="0 0 29 16" version="1.1" xmlns="http://www.w3.org/2000/svg" xmlns:xlink="http://www.w3.org/1999/xlink">
    <!-- Generator: Sketch 48.2 (47327) - http://www.bohemiancoding.com/sketch -->
    <title>PeopleIcon</title>
    <desc>Created with Sketch.</desc>
    <defs></defs>
    <g id="Page-1" stroke="none" stroke-width="1" fill="none" fill-rule="evenodd" opacity="0.54">
        <g id="PeopleIcon" fill="#000000" fill-rule="nonzero">
            <g id="path5_fill-link">
                <g transform="translate(0.000000, 0.080000)">
                    <path d="M8.92912,8.96753 C5.9536,8.96753 0,10.2754 0,12.8899 L0,15.6905 L17.857,15.6905 L17.857,12.8899 C17.857,10.2754 11.9059,8.96753 8.92912,8.96753 Z M19.1336,8.96655 C18.7625,8.96655 18.3467,8.98672 17.9016,9.02707 C19.3785,9.9662 20.4078,11.227 20.4078,12.8889 L20.4078,15.6895 L28.0589,15.6895 L28.0589,12.8889 C28.0589,10.2744 22.1092,8.96655 19.1336,8.96655 Z M8.92914,0 C6.81707,0 5.10292,1.50731 5.10292,3.36315 C5.10292,5.21899 6.81707,6.72518 8.92914,6.72518 C11.0425,6.72518 12.7439,5.21899 12.7439,3.36315 C12.7439,1.50731 11.0425,0 8.92914,0 Z M19.1337,0 C17.019,0 15.3062,1.50731 15.3062,3.36315 C15.3062,5.21899 17.019,6.72518 19.1337,6.72518 C21.2457,6.72518 22.9459,5.21899 22.9459,3.36315 C22.9459,1.50731 21.2457,0 19.1337,0 Z" id="path5_fill"></path>
                </g>
            </g>
        </g>
    </g>
</svg>