<svg width="25" height="25" viewBox="0 0 25 25" version="1.1" xmlns="http://www.w3.org/2000/svg" xmlns:xlink="http://www.w3.org/1999/xlink">
<title>Fill 9.1</title>
<desc>Created using Figma</desc>
<g id="Canvas" transform="translate(2210 75)">
<g id="Fill 9.1" opacity="0.54">
<use xlink:href="#path6_fill" transform="translate(-2210 -75)"/>
</g>
</g>
<defs>
<path id="path6_fill" fill-rule="evenodd" d="M 4.46384 5.60353C 3.4078 5.60353 2.552 4.84932 2.552 3.92252C 2.552 2.9946 3.4078 2.2415 4.46384 2.2415C 5.51987 2.2415 6.37695 2.9946 6.37695 3.92252C 6.37695 4.84932 5.51987 5.60353 4.46384 5.60353L 4.46384 5.60353ZM 11.4774 0L 0 0L 0 10.0861C 0 10.7047 0.286967 11.2639 0.748664 11.6719L 12.2312 21.7557C 12.6916 22.1614 13.3293 22.4135 14.0346 22.4135C 14.7399 22.4135 15.3776 22.1625 15.838 21.7579L 24.7582 13.9188C 25.2212 13.5131 25.5081 12.9505 25.5081 12.3319C 25.5081 11.7122 25.2237 11.1507 24.7595 10.7473L 13.2834 0.655596C 12.8191 0.252152 12.1827 0 11.4774 0L 11.4774 0Z"/>
</defs>
</svg>
