<svg width="26" height="24" viewBox="0 0 26 24" version="1.1" xmlns="http://www.w3.org/2000/svg" xmlns:xlink="http://www.w3.org/1999/xlink">
<title>PurchasesIcon</title>
<desc>Created using Figma</desc>
<g id="Canvas" transform="translate(-273 -1856)">
<g id="PurchasesIcon" opacity="0.54">
<use xlink:href="#path7_fill" transform="translate(273.275 1856.93)"/>
</g>
</g>
<defs>
<path id="path7_fill" fill-rule="evenodd" d="M 7.65372 17.9307C 6.24567 17.9307 5.11566 18.9337 5.11566 20.172C 5.11566 21.4092 6.24567 22.4134 7.65372 22.4134C 9.06305 22.4134 10.2045 21.4092 10.2045 20.172C 10.2045 18.9337 9.06305 17.9307 7.65372 17.9307L 7.65372 17.9307ZM 20.4078 17.9307C 18.9997 17.9307 17.8697 18.9337 17.8697 20.172C 17.8697 21.4092 18.9997 22.4134 20.4078 22.4134C 21.8171 22.4134 22.9586 21.4092 22.9586 20.172C 22.9586 18.9337 21.8171 17.9307 20.4078 17.9307L 20.4078 17.9307ZM 2.55209 0L 0 0L 0 2.24023L 2.55209 2.24023L 7.141 10.7439L 5.41538 13.4907C 5.21641 13.8123 5.1029 14.1799 5.1029 14.5688C 5.1029 15.806 6.24567 16.8102 7.65372 16.8102L 22.9586 16.8102L 22.9586 14.5688L 8.19321 14.5688C 8.01721 14.5688 7.87564 14.4444 7.87564 14.2886L 7.9139 14.153L 9.05921 12.3274L 18.5597 12.3274C 19.5188 12.3274 20.3555 11.8624 20.7917 11.1743L 25.35 3.9022C 25.452 3.74306 25.5107 3.55815 25.5107 3.36203C 25.5107 2.7423 24.9393 2.24023 24.234 2.24023L 5.37456 2.24023L 4.85675 1.28318C 4.44989 0.524477 3.56986 0 2.55209 0L 2.55209 0Z"/>
</defs>
</svg>
