<svg width="24" height="21" viewBox="0 0 24 21" version="1.1" xmlns="http://www.w3.org/2000/svg" xmlns:xlink="http://www.w3.org/1999/xlink">
<title>WalletIcon</title>
<desc>Created using Figma</desc>
<g id="Canvas" transform="translate(-274 -1533)">
<g id="WalletIcon">
<use xlink:href="#path0_fill" transform="translate(274.552 1533)" fill="#4285F4"/>
</g>
</g>
<defs>
<path id="path0_fill" fill-rule="evenodd" d="M 20.4065 0L 2.53806 0C 1.13001 0 0.0127541 1.00301 0.0127541 2.24135L 0 17.9308C 0 19.1681 1.13001 20.1722 2.53806 20.1722L 20.4065 20.1722C 21.8158 20.1722 22.9573 19.1681 22.9573 17.9308L 22.9573 2.24135C 22.9573 1.00301 21.8158 0 20.4065 0L 20.4065 0ZM 20.4065 13.448L 15.3049 13.448C 15.3049 15.3049 13.592 16.81 11.4787 16.81C 9.36531 16.81 7.65244 15.3049 7.65244 13.448L 2.53806 13.448L 2.53806 2.24121L 20.4065 2.24121L 20.4065 13.448L 20.4065 13.448ZM 16.5803 7.84445L 14.0295 7.84445L 14.0295 4.48242L 8.92784 4.48242L 8.92784 7.84445L 6.37703 7.84445L 11.4787 12.3272L 16.5803 7.84445L 16.5803 7.84445Z"/>
</defs>
</svg>
